# xmcd
#
# Track frame offsets:
#	182
#	20057
#	35057
#	48857
#	62095
#	74132
#	87932
#	107432
#	125957
#	139232
#	152507
#	166082
#	181232
#	196907
#
# Disc length: 2868 seconds
#
# Revision: 1
# Processed by: cddbd v1.4PL0 Copyright (c) Steve Scherf et al.
# Submitted via: audiograbber 1.81.03
#
DISCID=c50b320e
DTITLE=Mark Tempany - Stand In The Storm
DYEAR=1900
DGENRE=Country
TTITLE0=Free Again
TTITLE1=Stand In The Storm
TTITLE2=City Boy
TTITLE3=April Moon
TTITLE4=I'm Goin' Fishin
TTITLE5=Southern Skies
TTITLE6=All I Ever Wanted
TTITLE7=Sinking Sun
TTITLE8=Until I Met You
TTITLE9=Separate Ways
TTITLE10=Summer Breeze
TTITLE11=This Is Our Land
TTITLE12=Going Home
TTITLE13=Child Of The Wind
EXTD=
EXTT0=
EXTT1=
EXTT2=
EXTT3=
EXTT4=
EXTT5=
EXTT6=
EXTT7=
EXTT8=
EXTT9=
EXTT10=
EXTT11=
EXTT12=
EXTT13=
PLAYORDER=
